<svg xmlns="http://www.w3.org/2000/svg" xmlns:xlink="http://www.w3.org/1999/xlink" width="348" zoomAndPan="magnify" viewBox="0 0 261 147.750002" height="197" preserveAspectRatio="xMidYMid meet" version="1.0"><defs><g/><clipPath id="6a03b90d68"><path d="M 89 0 L 171.359375 0 L 171.359375 56.902344 L 89 56.902344 Z M 89 0 " clip-rule="nonzero"/></clipPath></defs><g clip-path="url(#6a03b90d68)"><path fill="#b88917" d="M 135.316406 55.335938 C 137.074219 55.542969 138.738281 55.464844 140.390625 55.226562 C 149.394531 53.933594 156.6875 49.519531 162.695312 42.839844 C 166.066406 39.085938 168.535156 34.804688 169.914062 29.925781 C 170.183594 28.96875 170.378906 28 170.546875 27.019531 C 170.605469 26.691406 170.515625 26.613281 170.214844 26.5625 C 167.679688 26.164062 165.140625 26.1875 162.609375 26.507812 C 157.175781 27.195312 152.082031 28.914062 147.328125 31.636719 C 144.96875 32.984375 142.789062 34.574219 140.871094 36.519531 C 140.601562 36.796875 140.480469 37.082031 140.433594 37.464844 C 139.8125 42.910156 138.257812 48.023438 134.949219 52.484375 C 133.839844 53.976562 132.578125 55.328125 131.078125 56.4375 C 130.402344 56.941406 130.234375 56.949219 129.570312 56.441406 C 126.507812 54.097656 124.382812 51.039062 122.828125 47.554688 C 121.375 44.300781 120.5625 40.875 120.195312 37.339844 C 120.164062 37.035156 120.046875 36.808594 119.835938 36.59375 C 117.207031 33.902344 114.097656 31.898438 110.730469 30.273438 C 106.929688 28.433594 102.933594 27.203125 98.757812 26.601562 C 95.988281 26.203125 93.210938 26.128906 90.4375 26.5625 C 90.144531 26.609375 90.039062 26.671875 90.09375 27.011719 C 90.90625 32.003906 92.992188 36.441406 96.007812 40.453125 C 100.460938 46.375 106.125 50.734375 113.054688 53.410156 C 116.421875 54.707031 119.910156 55.429688 123.53125 55.445312 C 123.800781 55.445312 124.074219 55.4375 124.34375 55.421875 C 124.640625 55.40625 124.9375 55.378906 125.328125 55.347656 C 125.136719 55.113281 124.988281 54.914062 124.828125 54.730469 C 122.914062 52.554688 120.757812 50.628906 118.578125 48.734375 C 113.683594 44.472656 108.613281 40.433594 103.304688 36.703125 C 102.160156 35.902344 101.003906 35.113281 99.792969 34.414062 C 99.355469 34.164062 99.222656 33.875 99.398438 33.589844 C 99.570312 33.3125 99.902344 33.296875 100.308594 33.554688 C 103.386719 35.503906 106.332031 37.644531 109.21875 39.859375 C 113.929688 43.46875 118.496094 47.242188 122.816406 51.316406 C 123.996094 52.429688 125.167969 53.5625 126.160156 54.855469 C 126.402344 55.167969 126.769531 55.480469 126.582031 55.929688 C 126.390625 56.386719 125.914062 56.253906 125.542969 56.28125 C 118.882812 56.792969 112.804688 54.941406 107.128906 51.617188 C 100.453125 47.707031 95.269531 42.34375 91.796875 35.386719 C 90.476562 32.75 89.597656 29.964844 89.148438 27.046875 C 89.128906 26.914062 89.117188 26.777344 89.109375 26.644531 C 89.074219 25.984375 89.171875 25.847656 89.808594 25.722656 C 92.011719 25.289062 94.238281 25.238281 96.460938 25.40625 C 102.253906 25.851562 107.6875 27.53125 112.804688 30.257812 C 115.292969 31.589844 117.609375 33.175781 119.679688 35.105469 C 119.757812 35.183594 119.820312 35.304688 120 35.296875 C 120 35.121094 120.011719 34.949219 119.996094 34.777344 C 119.921875 33.90625 119.878906 33.027344 119.945312 32.160156 C 120.015625 31.277344 119.757812 30.539062 119.328125 29.78125 C 117.378906 26.359375 115.367188 22.976562 113.238281 19.664062 C 113.15625 19.539062 113.070312 19.40625 113.03125 19.265625 C 112.96875 19.0625 113.039062 18.878906 113.226562 18.761719 C 113.414062 18.640625 113.605469 18.664062 113.765625 18.8125 C 113.863281 18.902344 113.9375 19.019531 114.011719 19.128906 C 116.042969 22.222656 117.921875 25.40625 119.753906 28.617188 C 119.828125 28.742188 119.898438 28.871094 120.035156 29.105469 C 120.121094 28.277344 120.195312 27.574219 120.269531 26.867188 C 120.722656 22.695312 121.667969 18.636719 123.011719 14.664062 C 124.667969 9.746094 126.886719 5.09375 129.664062 0.707031 C 130.109375 0.00390625 130.535156 0 130.976562 0.703125 C 135.476562 7.859375 138.535156 15.574219 139.96875 23.917969 C 140.242188 25.503906 140.445312 27.097656 140.550781 28.707031 C 140.554688 28.792969 140.566406 28.882812 140.582031 29.015625 C 140.765625 28.910156 140.808594 28.753906 140.882812 28.625 C 142.714844 25.414062 144.59375 22.230469 146.625 19.136719 C 146.699219 19.027344 146.773438 18.910156 146.871094 18.816406 C 147.027344 18.667969 147.222656 18.640625 147.410156 18.757812 C 147.613281 18.882812 147.683594 19.078125 147.601562 19.300781 C 147.546875 19.453125 147.453125 19.59375 147.363281 19.734375 C 145.113281 23.21875 142.996094 26.785156 140.976562 30.40625 C 140.78125 30.757812 140.683594 31.105469 140.695312 31.515625 C 140.726562 32.585938 140.734375 33.652344 140.648438 34.722656 C 140.632812 34.910156 140.648438 35.101562 140.648438 35.28125 C 140.761719 35.328125 140.808594 35.253906 140.859375 35.207031 C 144.527344 31.789062 148.828125 29.4375 153.503906 27.734375 C 157.503906 26.28125 161.621094 25.421875 165.886719 25.335938 C 167.558594 25.300781 169.222656 25.394531 170.871094 25.726562 C 171.457031 25.847656 171.589844 25.988281 171.53125 26.589844 C 171.386719 28.121094 171.027344 29.609375 170.566406 31.074219 C 168.96875 36.164062 166.1875 40.550781 162.558594 44.414062 C 158.160156 49.097656 152.949219 52.570312 146.867188 54.691406 C 143.457031 55.878906 139.945312 56.476562 136.324219 56.367188 C 135.785156 56.351562 135.242188 56.300781 134.703125 56.257812 C 133.996094 56.199219 133.8125 55.832031 134.210938 55.226562 C 134.78125 54.371094 135.492188 53.632812 136.210938 52.902344 C 139.007812 50.074219 142.011719 47.472656 145.066406 44.933594 C 149.617188 41.152344 154.289062 37.53125 159.226562 34.269531 C 159.628906 34.003906 160.035156 33.746094 160.441406 33.492188 C 160.726562 33.3125 161.03125 33.273438 161.230469 33.589844 C 161.4375 33.910156 161.257812 34.164062 160.972656 34.34375 C 154.058594 38.65625 147.78125 43.804688 141.632812 49.117188 C 139.605469 50.871094 137.621094 52.675781 135.851562 54.691406 C 135.683594 54.882812 135.527344 55.085938 135.316406 55.335938 Z M 130.703125 55.503906 C 130.851562 55.398438 130.910156 55.359375 130.96875 55.3125 C 132.644531 53.953125 134.015625 52.324219 135.164062 50.507812 C 137.71875 46.472656 138.984375 42.007812 139.511719 37.308594 C 140.046875 32.53125 139.746094 27.785156 138.855469 23.074219 C 137.53125 16.101562 135.054688 9.558594 131.507812 3.414062 C 131.132812 2.769531 130.746094 2.136719 130.363281 1.496094 C 130.292969 1.539062 130.261719 1.550781 130.246094 1.570312 C 130.195312 1.644531 130.144531 1.71875 130.097656 1.796875 C 124.660156 10.753906 121.355469 20.386719 120.917969 30.917969 C 120.722656 35.527344 121.21875 40.050781 122.652344 44.449219 C 123.867188 48.171875 125.71875 51.527344 128.535156 54.300781 C 128.902344 54.660156 129.269531 55.027344 129.769531 55.351562 C 129.769531 55.101562 129.769531 54.925781 129.769531 54.75 C 129.769531 41.882812 129.769531 29.011719 129.769531 16.144531 C 129.769531 15.960938 129.761719 15.777344 129.796875 15.601562 C 129.84375 15.347656 130.023438 15.210938 130.285156 15.234375 C 130.519531 15.253906 130.671875 15.398438 130.691406 15.640625 C 130.707031 15.835938 130.703125 16.03125 130.703125 16.226562 C 130.703125 29.113281 130.703125 41.996094 130.703125 54.878906 C 130.703125 55.058594 130.703125 55.234375 130.703125 55.503906 Z M 106.113281 24.75 C 106.214844 25.3125 106.347656 25.871094 106.492188 26.421875 C 106.566406 26.707031 106.757812 26.914062 107.085938 26.832031 C 107.417969 26.75 107.46875 26.488281 107.410156 26.191406 C 107.390625 26.101562 107.371094 26.015625 107.347656 25.929688 C 106.976562 24.558594 106.804688 23.15625 106.765625 21.742188 C 106.664062 18.09375 107.285156 14.558594 108.476562 11.121094 C 108.765625 10.289062 108.777344 10.257812 109.652344 10.425781 C 113.640625 11.199219 117.367188 12.664062 120.824219 14.800781 C 121.015625 14.917969 121.1875 15.070312 121.386719 15.171875 C 121.605469 15.28125 121.839844 15.261719 121.992188 15.042969 C 122.140625 14.828125 122.105469 14.605469 121.921875 14.429688 C 121.78125 14.296875 121.621094 14.183594 121.457031 14.074219 C 119.433594 12.722656 117.21875 11.757812 114.949219 10.921875 C 113.058594 10.222656 111.140625 9.621094 109.117188 9.425781 C 108.308594 9.347656 108.066406 9.472656 107.816406 10.136719 C 106.527344 13.605469 105.820312 17.183594 105.808594 21.398438 C 105.792969 22.1875 105.886719 23.476562 106.113281 24.75 Z M 154.625 17.503906 C 154.320312 14.925781 153.691406 12.425781 152.777344 10 C 152.613281 9.566406 152.308594 9.386719 151.875 9.414062 C 151.46875 9.4375 151.0625 9.46875 150.664062 9.535156 C 147.976562 9.984375 145.449219 10.933594 142.972656 12.027344 C 141.542969 12.65625 140.148438 13.363281 138.878906 14.289062 C 138.613281 14.480469 138.425781 14.734375 138.660156 15.050781 C 138.875 15.335938 139.164062 15.257812 139.421875 15.078125 C 141.539062 13.585938 143.902344 12.585938 146.316406 11.703125 C 147.925781 11.117188 149.5625 10.621094 151.269531 10.386719 C 151.746094 10.320312 151.945312 10.453125 152.105469 10.914062 C 152.867188 13.09375 153.402344 15.324219 153.683594 17.609375 C 153.964844 19.855469 154.003906 22.109375 153.621094 24.351562 C 153.515625 24.972656 153.359375 25.585938 153.230469 26.203125 C 153.171875 26.480469 153.226562 26.730469 153.523438 26.824219 C 153.839844 26.921875 154.039062 26.742188 154.140625 26.453125 C 154.191406 26.3125 154.226562 26.164062 154.261719 26.019531 C 154.675781 24.347656 154.847656 22.644531 154.824219 20.882812 C 154.84375 19.777344 154.761719 18.640625 154.625 17.503906 Z M 154.625 17.503906 " fill-opacity="1" fill-rule="nonzero"/><path fill="#b88917" d="M 135.316406 55.335938 C 137.074219 55.542969 138.738281 55.464844 140.390625 55.226562 C 149.394531 53.933594 156.6875 49.519531 162.695312 42.839844 C 166.066406 39.085938 168.535156 34.804688 169.914062 29.925781 C 170.183594 28.96875 170.378906 28 170.546875 27.019531 C 170.605469 26.691406 170.515625 26.613281 170.214844 26.5625 C 167.679688 26.164062 165.140625 26.1875 162.609375 26.507812 C 157.175781 27.195312 152.082031 28.914062 147.328125 31.636719 C 144.96875 32.984375 142.789062 34.574219 140.871094 36.519531 C 140.601562 36.796875 140.480469 37.082031 140.433594 37.464844 C 139.8125 42.910156 138.257812 48.023438 134.949219 52.484375 C 133.839844 53.976562 132.578125 55.328125 131.078125 56.4375 C 130.402344 56.941406 130.234375 56.949219 129.570312 56.441406 C 126.507812 54.097656 124.382812 51.039062 122.828125 47.554688 C 121.375 44.300781 120.5625 40.875 120.195312 37.339844 C 120.164062 37.035156 120.046875 36.808594 119.835938 36.59375 C 117.207031 33.902344 114.097656 31.898438 110.730469 30.273438 C 106.929688 28.433594 102.933594 27.203125 98.757812 26.601562 C 95.988281 26.203125 93.210938 26.128906 90.4375 26.5625 C 90.144531 26.609375 90.039062 26.671875 90.09375 27.011719 C 90.90625 32.003906 92.992188 36.441406 96.007812 40.453125 C 100.460938 46.375 106.125 50.734375 113.054688 53.410156 C 116.421875 54.707031 119.910156 55.429688 123.53125 55.445312 C 123.800781 55.445312 124.074219 55.4375 124.34375 55.421875 C 124.640625 55.40625 124.9375 55.378906 125.328125 55.347656 C 125.136719 55.113281 124.988281 54.914062 124.828125 54.730469 C 122.914062 52.554688 120.757812 50.628906 118.578125 48.734375 C 113.683594 44.472656 108.613281 40.433594 103.304688 36.703125 C 102.160156 35.902344 101.003906 35.113281 99.792969 34.414062 C 99.355469 34.164062 99.222656 33.875 99.398438 33.589844 C 99.570312 33.3125 99.902344 33.296875 100.308594 33.554688 C 103.386719 35.503906 106.332031 37.644531 109.21875 39.859375 C 113.929688 43.46875 118.496094 47.242188 122.816406 51.316406 C 123.996094 52.429688 125.167969 53.5625 126.160156 54.855469 C 126.402344 55.167969 126.769531 55.480469 126.582031 55.929688 C 126.390625 56.386719 125.914062 56.253906 125.542969 56.28125 C 118.882812 56.792969 112.804688 54.941406 107.128906 51.617188 C 100.453125 47.707031 95.269531 42.34375 91.796875 35.386719 C 90.476562 32.75 89.597656 29.964844 89.148438 27.046875 C 89.128906 26.914062 89.117188 26.777344 89.109375 26.644531 C 89.074219 25.984375 89.171875 25.847656 89.808594 25.722656 C 92.011719 25.289062 94.238281 25.238281 96.460938 25.40625 C 102.253906 25.851562 107.6875 27.53125 112.804688 30.257812 C 115.292969 31.589844 117.609375 33.175781 119.679688 35.105469 C 119.757812 35.183594 119.820312 35.304688 120 35.296875 C 120 35.121094 120.011719 34.949219 119.996094 34.777344 C 119.921875 33.90625 119.878906 33.027344 119.945312 32.160156 C 120.015625 31.277344 119.757812 30.539062 119.328125 29.78125 C 117.378906 26.359375 115.367188 22.976562 113.238281 19.664062 C 113.15625 19.539062 113.070312 19.40625 113.03125 19.265625 C 112.96875 19.0625 113.039062 18.878906 113.226562 18.761719 C 113.414062 18.640625 113.605469 18.664062 113.765625 18.8125 C 113.863281 18.902344 113.9375 19.019531 114.011719 19.128906 C 116.042969 22.222656 117.921875 25.40625 119.753906 28.617188 C 119.828125 28.742188 119.898438 28.871094 120.035156 29.105469 C 120.121094 28.277344 120.195312 27.574219 120.269531 26.867188 C 120.722656 22.695312 121.667969 18.636719 123.011719 14.664062 C 124.667969 9.746094 126.886719 5.09375 129.664062 0.707031 C 130.109375 0.00390625 130.535156 0 130.976562 0.703125 C 135.476562 7.859375 138.535156 15.574219 139.96875 23.917969 C 140.242188 25.503906 140.445312 27.097656 140.550781 28.707031 C 140.554688 28.792969 140.566406 28.882812 140.582031 29.015625 C 140.765625 28.910156 140.808594 28.753906 140.882812 28.625 C 142.714844 25.414062 144.59375 22.230469 146.625 19.136719 C 146.699219 19.027344 146.773438 18.910156 146.871094 18.816406 C 147.027344 18.667969 147.222656 18.640625 147.410156 18.757812 C 147.613281 18.882812 147.683594 19.078125 147.601562 19.300781 C 147.546875 19.453125 147.453125 19.59375 147.363281 19.734375 C 145.113281 23.21875 142.996094 26.785156 140.976562 30.40625 C 140.78125 30.757812 140.683594 31.105469 140.695312 31.515625 C 140.726562 32.585938 140.734375 33.652344 140.648438 34.722656 C 140.632812 34.910156 140.648438 35.101562 140.648438 35.28125 C 140.761719 35.328125 140.808594 35.253906 140.859375 35.207031 C 144.527344 31.789062 148.828125 29.4375 153.503906 27.734375 C 157.503906 26.28125 161.621094 25.421875 165.886719 25.335938 C 167.558594 25.300781 169.222656 25.394531 170.871094 25.726562 C 171.457031 25.847656 171.589844 25.988281 171.53125 26.589844 C 171.386719 28.121094 171.027344 29.609375 170.566406 31.074219 C 168.96875 36.164062 166.1875 40.550781 162.558594 44.414062 C 158.160156 49.097656 152.949219 52.570312 146.867188 54.691406 C 143.457031 55.878906 139.945312 56.476562 136.324219 56.367188 C 135.785156 56.351562 135.242188 56.300781 134.703125 56.257812 C 133.996094 56.199219 133.8125 55.832031 134.210938 55.226562 C 134.78125 54.371094 135.492188 53.632812 136.210938 52.902344 C 139.007812 50.074219 142.011719 47.472656 145.066406 44.933594 C 149.617188 41.152344 154.289062 37.53125 159.226562 34.269531 C 159.628906 34.003906 160.035156 33.746094 160.441406 33.492188 C 160.726562 33.3125 161.03125 33.273438 161.230469 33.589844 C 161.4375 33.910156 161.257812 34.164062 160.972656 34.34375 C 154.058594 38.65625 147.78125 43.804688 141.632812 49.117188 C 139.605469 50.871094 137.621094 52.675781 135.851562 54.691406 C 135.683594 54.882812 135.527344 55.085938 135.316406 55.335938 Z M 130.703125 55.503906 C 130.851562 55.398438 130.910156 55.359375 130.96875 55.3125 C 132.644531 53.953125 134.015625 52.324219 135.164062 50.507812 C 137.71875 46.472656 138.984375 42.007812 139.511719 37.308594 C 140.046875 32.53125 139.746094 27.785156 138.855469 23.074219 C 137.53125 16.101562 135.054688 9.558594 131.507812 3.414062 C 131.132812 2.769531 130.746094 2.136719 130.363281 1.496094 C 130.292969 1.539062 130.261719 1.550781 130.246094 1.570312 C 130.195312 1.644531 130.144531 1.71875 130.097656 1.796875 C 124.660156 10.753906 121.355469 20.386719 120.917969 30.917969 C 120.722656 35.527344 121.21875 40.050781 122.652344 44.449219 C 123.867188 48.171875 125.71875 51.527344 128.535156 54.300781 C 128.902344 54.660156 129.269531 55.027344 129.769531 55.351562 C 129.769531 55.101562 129.769531 54.925781 129.769531 54.75 C 129.769531 41.882812 129.769531 29.011719 129.769531 16.144531 C 129.769531 15.960938 129.761719 15.777344 129.796875 15.601562 C 129.84375 15.347656 130.023438 15.210938 130.285156 15.234375 C 130.519531 15.253906 130.671875 15.398438 130.691406 15.640625 C 130.707031 15.835938 130.703125 16.03125 130.703125 16.226562 C 130.703125 29.113281 130.703125 41.996094 130.703125 54.878906 C 130.703125 55.058594 130.703125 55.234375 130.703125 55.503906 Z M 106.113281 24.75 C 106.214844 25.3125 106.347656 25.871094 106.492188 26.421875 C 106.566406 26.707031 106.757812 26.914062 107.085938 26.832031 C 107.417969 26.75 107.46875 26.488281 107.410156 26.191406 C 107.390625 26.101562 107.371094 26.015625 107.347656 25.929688 C 106.976562 24.558594 106.804688 23.15625 106.765625 21.742188 C 106.664062 18.09375 107.285156 14.558594 108.476562 11.121094 C 108.765625 10.289062 108.777344 10.257812 109.652344 10.425781 C 113.640625 11.199219 117.367188 12.664062 120.824219 14.800781 C 121.015625 14.917969 121.1875 15.070312 121.386719 15.171875 C 121.605469 15.28125 121.839844 15.261719 121.992188 15.042969 C 122.140625 14.828125 122.105469 14.605469 121.921875 14.429688 C 121.78125 14.296875 121.621094 14.183594 121.457031 14.074219 C 119.433594 12.722656 117.21875 11.757812 114.949219 10.921875 C 113.058594 10.222656 111.140625 9.621094 109.117188 9.425781 C 108.308594 9.347656 108.066406 9.472656 107.816406 10.136719 C 106.527344 13.605469 105.820312 17.183594 105.808594 21.398438 C 105.792969 22.1875 105.886719 23.476562 106.113281 24.75 Z M 154.625 17.503906 C 154.320312 14.925781 153.691406 12.425781 152.777344 10 C 152.613281 9.566406 152.308594 9.386719 151.875 9.414062 C 151.46875 9.4375 151.0625 9.46875 150.664062 9.535156 C 147.976562 9.984375 145.449219 10.933594 142.972656 12.027344 C 141.542969 12.65625 140.148438 13.363281 138.878906 14.289062 C 138.613281 14.480469 138.425781 14.734375 138.660156 15.050781 C 138.875 15.335938 139.164062 15.257812 139.421875 15.078125 C 141.539062 13.585938 143.902344 12.585938 146.316406 11.703125 C 147.925781 11.117188 149.5625 10.621094 151.269531 10.386719 C 151.746094 10.320312 151.945312 10.453125 152.105469 10.914062 C 152.867188 13.09375 153.402344 15.324219 153.683594 17.609375 C 153.964844 19.855469 154.003906 22.109375 153.621094 24.351562 C 153.515625 24.972656 153.359375 25.585938 153.230469 26.203125 C 153.171875 26.480469 153.226562 26.730469 153.523438 26.824219 C 153.839844 26.921875 154.039062 26.742188 154.140625 26.453125 C 154.191406 26.3125 154.226562 26.164062 154.261719 26.019531 C 154.675781 24.347656 154.847656 22.644531 154.824219 20.882812 C 154.84375 19.777344 154.761719 18.640625 154.625 17.503906 Z M 154.625 17.503906 " fill-opacity="1" fill-rule="nonzero"/></g><g fill="#544541" fill-opacity="1"><g transform="translate(27.566876, 106.328042)"><g><path d="M 6 0 L 1.109375 0 L 20.046875 -52.921875 L 18.875 -55.53125 L 23.765625 -55.53125 L 48.53125 0 L 43.640625 0 L 39.59375 -9.046875 C 38.925781 -10.566406 37.941406 -11.9375 36.640625 -13.15625 C 35.347656 -14.382812 33.882812 -15.421875 32.25 -16.265625 C 30.625 -17.117188 28.941406 -17.765625 27.203125 -18.203125 C 25.460938 -18.648438 23.816406 -18.875 22.265625 -18.875 C 20.492188 -18.875 18.742188 -18.597656 17.015625 -18.046875 C 15.296875 -17.492188 13.625 -16.625 12 -15.4375 C 11.40625 -14.988281 10.8125 -14.253906 10.21875 -13.234375 C 9.625 -12.222656 9.195312 -11.273438 8.9375 -10.390625 Z M 12.046875 -21.046875 C 11.785156 -20.046875 11.878906 -19.546875 12.328125 -19.546875 C 12.546875 -19.546875 12.953125 -19.691406 13.546875 -19.984375 C 14.660156 -20.617188 15.804688 -21.070312 16.984375 -21.34375 C 18.171875 -21.625 19.378906 -21.765625 20.609375 -21.765625 C 23.234375 -21.765625 25.820312 -21.207031 28.375 -20.09375 C 30.925781 -18.988281 33.257812 -17.566406 35.375 -15.828125 C 36 -15.304688 36.394531 -15.109375 36.5625 -15.234375 C 36.726562 -15.367188 36.644531 -15.804688 36.3125 -16.546875 L 21.984375 -48.640625 C 21.648438 -49.421875 21.300781 -49.8125 20.9375 -49.8125 C 20.5625 -49.8125 20.226562 -49.367188 19.9375 -48.484375 Z M 12.046875 -21.046875 "/></g></g></g><g fill="#544541" fill-opacity="1"><g transform="translate(76.268155, 106.328042)"><g><path d="M 3.890625 -38.421875 L 8.328125 -38.421875 L 8.328125 -31.484375 C 8.328125 -30.597656 8.457031 -30.15625 8.71875 -30.15625 C 8.9375 -30.15625 9.269531 -30.46875 9.71875 -31.09375 C 10.644531 -32.351562 11.8125 -33.628906 13.21875 -34.921875 C 14.625 -36.222656 16.28125 -37.316406 18.1875 -38.203125 C 20.09375 -39.085938 22.191406 -39.53125 24.484375 -39.53125 C 26.484375 -39.53125 28.1875 -39.207031 29.59375 -38.5625 C 31 -37.914062 31.703125 -37.09375 31.703125 -36.09375 C 31.703125 -35.757812 31.570312 -35.332031 31.3125 -34.8125 C 31.0625 -34.300781 30.507812 -34.046875 29.65625 -34.046875 C 28.914062 -34.046875 28.273438 -34.171875 27.734375 -34.421875 C 27.203125 -34.679688 26.664062 -34.976562 26.125 -35.3125 C 25.59375 -35.644531 24.984375 -35.941406 24.296875 -36.203125 C 23.609375 -36.460938 22.726562 -36.59375 21.65625 -36.59375 C 19.988281 -36.59375 18.359375 -36.238281 16.765625 -35.53125 C 15.171875 -34.832031 13.742188 -33.867188 12.484375 -32.640625 C 11.234375 -31.421875 10.226562 -30.023438 9.46875 -28.453125 C 8.707031 -26.878906 8.328125 -25.222656 8.328125 -23.484375 L 8.328125 0 L 3.890625 0 Z M 3.890625 -38.421875 "/></g></g></g><g fill="#544541" fill-opacity="1"><g transform="translate(107.976738, 106.328042)"><g><path d="M 2.5 -35.15625 C 2.5 -36.082031 2.859375 -36.773438 3.578125 -37.234375 C 4.304688 -37.691406 5.1875 -38.003906 6.21875 -38.171875 C 7.257812 -38.335938 8.222656 -38.421875 9.109375 -38.421875 L 15.328125 -38.421875 C 15.734375 -38.421875 16.007812 -38.316406 16.15625 -38.109375 C 16.300781 -37.910156 16.375 -37.679688 16.375 -37.421875 C 16.375 -36.910156 16.0625 -36.253906 15.4375 -35.453125 C 14.8125 -34.660156 14.035156 -33.707031 13.109375 -32.59375 C 12.179688 -31.488281 11.253906 -30.191406 10.328125 -28.703125 C 9.398438 -27.222656 8.617188 -25.539062 7.984375 -23.65625 C 7.359375 -21.769531 7.046875 -19.625 7.046875 -17.21875 C 7.046875 -15 7.367188 -12.890625 8.015625 -10.890625 C 8.671875 -8.890625 9.585938 -7.109375 10.765625 -5.546875 C 11.953125 -3.992188 13.367188 -2.773438 15.015625 -1.890625 C 16.671875 -1.003906 18.492188 -0.5625 20.484375 -0.5625 C 22.410156 -0.5625 24.171875 -0.96875 25.765625 -1.78125 C 27.359375 -2.59375 28.726562 -3.664062 29.875 -5 C 31.019531 -6.332031 31.90625 -7.785156 32.53125 -9.359375 C 33.164062 -10.929688 33.484375 -12.457031 33.484375 -13.9375 L 33.484375 -38.421875 L 37.921875 -38.421875 L 37.921875 0 L 33.484375 0 L 33.484375 -4.171875 C 33.484375 -5.171875 33.257812 -5.671875 32.8125 -5.671875 C 32.519531 -5.671875 32.113281 -5.410156 31.59375 -4.890625 C 29.96875 -3.222656 28.109375 -1.804688 26.015625 -0.640625 C 23.921875 0.523438 21.285156 1.109375 18.109375 1.109375 C 15.703125 1.109375 13.550781 0.664062 11.65625 -0.21875 C 9.769531 -1.113281 8.175781 -2.316406 6.875 -3.828125 C 5.582031 -5.347656 4.59375 -7.078125 3.90625 -9.015625 C 3.226562 -10.960938 2.890625 -12.992188 2.890625 -15.109375 C 2.890625 -17.515625 3.273438 -19.734375 4.046875 -21.765625 C 4.828125 -23.804688 5.800781 -25.640625 6.96875 -27.265625 C 8.132812 -28.890625 9.289062 -30.332031 10.4375 -31.59375 C 11.582031 -32.851562 12.546875 -33.914062 13.328125 -34.78125 C 14.109375 -35.65625 14.5 -36.332031 14.5 -36.8125 C 14.5 -37.113281 14.335938 -37.269531 14.015625 -37.28125 C 13.703125 -37.300781 13.4375 -37.3125 13.21875 -37.3125 L 9.4375 -37.3125 C 8.289062 -37.3125 7.429688 -37.117188 6.859375 -36.734375 C 6.285156 -36.347656 5.878906 -35.90625 5.640625 -35.40625 C 5.398438 -34.90625 5.164062 -34.457031 4.9375 -34.0625 C 4.71875 -33.675781 4.347656 -33.484375 3.828125 -33.484375 C 3.566406 -33.484375 3.28125 -33.617188 2.96875 -33.890625 C 2.65625 -34.171875 2.5 -34.59375 2.5 -35.15625 Z M 2.5 -35.15625 "/></g></g></g><g fill="#544541" fill-opacity="1"><g transform="translate(150.014214, 106.328042)"><g><path d="M 3.890625 0 L 3.890625 -38.421875 L 8.328125 -38.421875 L 8.328125 -34.3125 C 8.328125 -33.394531 8.492188 -32.9375 8.828125 -32.9375 C 9.046875 -32.9375 9.453125 -33.191406 10.046875 -33.703125 C 12.046875 -35.628906 14.175781 -37.082031 16.4375 -38.0625 C 18.695312 -39.039062 21.269531 -39.53125 24.15625 -39.53125 C 26.96875 -39.53125 29.4375 -38.984375 31.5625 -37.890625 C 33.695312 -36.804688 35.363281 -35.300781 36.5625 -33.375 C 37.769531 -31.445312 38.375 -29.222656 38.375 -26.703125 L 38.375 0 L 33.921875 0 L 33.921875 -26.59375 C 33.921875 -29.226562 33.421875 -31.414062 32.421875 -33.15625 C 31.429688 -34.894531 30.117188 -36.207031 28.484375 -37.09375 C 26.859375 -37.976562 25.117188 -38.421875 23.265625 -38.421875 C 21.410156 -38.421875 19.59375 -38.066406 17.8125 -37.359375 C 16.039062 -36.660156 14.441406 -35.707031 13.015625 -34.5 C 11.597656 -33.300781 10.460938 -31.941406 9.609375 -30.421875 C 8.753906 -28.910156 8.328125 -27.34375 8.328125 -25.71875 L 8.328125 0 Z M 3.890625 0 "/></g></g></g><g fill="#544541" fill-opacity="1"><g transform="translate(192.27382, 106.328042)"><g><path d="M 2.9375 -8.890625 C 2.9375 -11.472656 3.472656 -13.625 4.546875 -15.34375 C 5.617188 -17.070312 7.035156 -18.484375 8.796875 -19.578125 C 10.554688 -20.671875 12.484375 -21.539062 14.578125 -22.1875 C 16.671875 -22.832031 18.757812 -23.359375 20.84375 -23.765625 C 22.9375 -24.171875 24.863281 -24.578125 26.625 -24.984375 C 28.382812 -25.390625 29.800781 -25.890625 30.875 -26.484375 C 31.945312 -27.078125 32.484375 -27.875 32.484375 -28.875 C 32.484375 -31.0625 32.046875 -32.789062 31.171875 -34.0625 C 30.304688 -35.34375 29.242188 -36.285156 27.984375 -36.890625 C 26.722656 -37.503906 25.453125 -37.910156 24.171875 -38.109375 C 22.898438 -38.316406 21.878906 -38.421875 21.109375 -38.421875 C 18.953125 -38.421875 17.253906 -38.097656 16.015625 -37.453125 C 14.773438 -36.804688 13.800781 -36.007812 13.09375 -35.0625 C 12.394531 -34.125 11.820312 -33.179688 11.375 -32.234375 C 10.9375 -31.285156 10.457031 -30.488281 9.9375 -29.84375 C 9.414062 -29.195312 8.710938 -28.875 7.828125 -28.875 C 7.273438 -28.875 6.832031 -29.09375 6.5 -29.53125 C 6.164062 -29.976562 6 -30.519531 6 -31.15625 C 6 -32.300781 6.421875 -33.378906 7.265625 -34.390625 C 8.117188 -35.410156 9.226562 -36.300781 10.59375 -37.0625 C 11.96875 -37.820312 13.488281 -38.421875 15.15625 -38.859375 C 16.820312 -39.304688 18.453125 -39.53125 20.046875 -39.53125 C 23.671875 -39.53125 26.742188 -38.910156 29.265625 -37.671875 C 31.785156 -36.429688 33.691406 -34.785156 34.984375 -32.734375 C 36.273438 -30.679688 36.921875 -28.453125 36.921875 -26.046875 L 36.921875 0 L 32.484375 0 L 32.484375 -5 C 32.484375 -6 32.222656 -6.5 31.703125 -6.5 C 31.296875 -6.5 30.875 -6.296875 30.4375 -5.890625 C 29.0625 -4.742188 27.566406 -3.628906 25.953125 -2.546875 C 24.347656 -1.472656 22.644531 -0.597656 20.84375 0.078125 C 19.050781 0.765625 17.175781 1.109375 15.21875 1.109375 C 12.769531 1.109375 10.617188 0.6875 8.765625 -0.15625 C 6.921875 -1.007812 5.488281 -2.195312 4.46875 -3.71875 C 3.445312 -5.238281 2.9375 -6.960938 2.9375 -8.890625 Z M 20.265625 -22.71875 C 17.929688 -22.300781 15.828125 -21.488281 13.953125 -20.28125 C 12.085938 -19.082031 10.617188 -17.59375 9.546875 -15.8125 C 8.472656 -14.039062 7.9375 -12.066406 7.9375 -9.890625 C 7.9375 -7.847656 8.378906 -6.175781 9.265625 -4.875 C 10.160156 -3.582031 11.316406 -2.625 12.734375 -2 C 14.160156 -1.375 15.65625 -1.0625 17.21875 -1.0625 C 19.0625 -1.0625 20.816406 -1.375 22.484375 -2 C 24.148438 -2.625 25.695312 -3.453125 27.125 -4.484375 C 28.550781 -5.523438 29.78125 -6.640625 30.8125 -7.828125 C 31.332031 -8.378906 31.738281 -9.117188 32.03125 -10.046875 C 32.332031 -10.972656 32.484375 -11.898438 32.484375 -12.828125 L 32.484375 -22.765625 C 32.484375 -23.578125 32.25 -24.148438 31.78125 -24.484375 C 31.320312 -24.816406 30.6875 -24.875 29.875 -24.65625 C 28.425781 -24.25 26.925781 -23.90625 25.375 -23.625 C 23.820312 -23.351562 22.117188 -23.050781 20.265625 -22.71875 Z M 20.265625 -22.71875 "/></g></g></g></svg>