<svg width="25" height="25" viewBox="0 0 25 25" fill="none" xmlns="http://www.w3.org/2000/svg">
<g clip-path="url(#clip0_98_471)">
<path d="M24.0816 9.30089L12.8316 3.30089C12.7231 3.24311 12.6021 3.21289 12.4791 3.21289C12.3562 3.21289 12.2351 3.24311 12.1266 3.30089L0.876636 9.30089C0.75664 9.36484 0.656286 9.46021 0.586311 9.57679C0.516335 9.69338 0.47937 9.82679 0.47937 9.96277C0.47937 10.0987 0.516335 10.2322 0.586311 10.3487C0.656286 10.4653 0.75664 10.5607 0.876636 10.6246L3.47914 12.0131V16.5525C3.47836 16.9209 3.61394 17.2765 3.85976 17.5509C5.08789 18.9187 7.83945 21.2128 12.4791 21.2128C14.0175 21.2255 15.5444 20.9468 16.9791 20.3915V23.4628C16.9791 23.6617 17.0582 23.8524 17.1988 23.9931C17.3395 24.1337 17.5302 24.2128 17.7291 24.2128C17.928 24.2128 18.1188 24.1337 18.2595 23.9931C18.4001 23.8524 18.4791 23.6617 18.4791 23.4628V19.6668C19.4571 19.1023 20.3409 18.3883 21.0985 17.5509C21.3443 17.2765 21.4799 16.9209 21.4791 16.5525V12.0131L24.0816 10.6246C24.2016 10.5607 24.302 10.4653 24.372 10.3487C24.4419 10.2322 24.4789 10.0987 24.4789 9.96277C24.4789 9.82679 24.4419 9.69338 24.372 9.57679C24.302 9.46021 24.2016 9.36484 24.0816 9.30089ZM12.4791 19.7128C8.42257 19.7128 6.03664 17.7309 4.97914 16.5525V12.8128L12.1266 16.6246C12.2351 16.6824 12.3562 16.7126 12.4791 16.7126C12.6021 16.7126 12.7231 16.6824 12.8316 16.6246L16.9791 14.4131V18.7575C15.7979 19.3087 14.3091 19.7128 12.4791 19.7128ZM19.9791 16.5487C19.5296 17.0476 19.0265 17.4956 18.4791 17.8846V13.6125L19.9791 12.8128V16.5487ZM18.1041 12.1134L18.0835 12.1012L12.8335 9.30089C12.6584 9.21142 12.4551 9.19434 12.2674 9.25333C12.0798 9.31232 11.9228 9.44266 11.8304 9.61626C11.7379 9.78986 11.7174 9.99283 11.7731 10.1814C11.8289 10.3701 11.9565 10.5292 12.1285 10.6246L16.5104 12.9628L12.4791 15.1125L2.82289 9.96277L12.4791 4.81308L22.1354 9.96277L18.1041 12.1134Z" fill="#E9EFEA"/>
</g>
<defs>
<clipPath id="clip0_98_471">
<rect width="24" height="24" fill="white" transform="translate(0.479126 0.962891)"/>
</clipPath>
</defs>
</svg>
