<svg width="25" height="25" viewBox="0 0 25 25" fill="none" xmlns="http://www.w3.org/2000/svg">
<path d="M19.5322 5.26305C18.635 4.35684 17.5679 3.6365 16.3919 3.14327C15.2159 2.65004 13.9542 2.39362 12.679 2.38867H12.605C10.0191 2.38867 7.53917 3.4159 5.71069 5.24438C3.88221 7.07286 2.85498 9.55281 2.85498 12.1387V17.3887C2.85498 17.9854 3.09203 18.5577 3.51399 18.9797C3.93595 19.4016 4.50824 19.6387 5.10498 19.6387H6.60498C7.20172 19.6387 7.77401 19.4016 8.19597 18.9797C8.61793 18.5577 8.85498 17.9854 8.85498 17.3887V13.6387C8.85498 13.0419 8.61793 12.4696 8.19597 12.0477C7.77401 11.6257 7.20172 11.3887 6.60498 11.3887H4.38873C4.53337 9.82486 5.12076 8.33467 6.08207 7.09277C7.04337 5.85087 8.33875 4.9087 9.81639 4.3767C11.294 3.8447 12.8927 3.74491 14.425 4.08902C15.9573 4.43313 17.3598 5.20689 18.4681 6.31961C19.8227 7.68114 20.6559 9.47529 20.8222 11.3887H18.605C18.0082 11.3887 17.4359 11.6257 17.014 12.0477C16.592 12.4696 16.355 13.0419 16.355 13.6387V17.3887C16.355 17.9854 16.592 18.5577 17.014 18.9797C17.4359 19.4016 18.0082 19.6387 18.605 19.6387H20.855C20.855 20.2354 20.6179 20.8077 20.196 21.2297C19.774 21.6516 19.2017 21.8887 18.605 21.8887H13.355C13.1561 21.8887 12.9653 21.9677 12.8247 22.1083C12.684 22.249 12.605 22.4398 12.605 22.6387C12.605 22.8376 12.684 23.0284 12.8247 23.169C12.9653 23.3097 13.1561 23.3887 13.355 23.3887H18.605C19.5995 23.3887 20.5534 22.9936 21.2566 22.2903C21.9599 21.5871 22.355 20.6332 22.355 19.6387V12.1387C22.3599 10.8633 22.113 9.59944 21.6286 8.4196C21.1443 7.23975 20.4318 6.16708 19.5322 5.26305ZM6.60498 12.8887C6.80389 12.8887 6.99466 12.9677 7.13531 13.1083C7.27596 13.249 7.35498 13.4398 7.35498 13.6387V17.3887C7.35498 17.5876 7.27596 17.7784 7.13531 17.919C6.99466 18.0597 6.80389 18.1387 6.60498 18.1387H5.10498C4.90607 18.1387 4.7153 18.0597 4.57465 17.919C4.434 17.7784 4.35498 17.5876 4.35498 17.3887V12.8887H6.60498ZM18.605 18.1387C18.4061 18.1387 18.2153 18.0597 18.0747 17.919C17.934 17.7784 17.855 17.5876 17.855 17.3887V13.6387C17.855 13.4398 17.934 13.249 18.0747 13.1083C18.2153 12.9677 18.4061 12.8887 18.605 12.8887H20.855V18.1387H18.605Z" fill="#4E6B53"/>
</svg>
