<svg width="25" height="25" viewBox="0 0 25 25" fill="none" xmlns="http://www.w3.org/2000/svg">
<path d="M17.5696 11.0718C17.5696 11.2707 17.4906 11.4615 17.3499 11.6021C17.2093 11.7428 17.0185 11.8218 16.8196 11.8218H10.8196C10.6207 11.8218 10.4299 11.7428 10.2893 11.6021C10.1486 11.4615 10.0696 11.2707 10.0696 11.0718C10.0696 10.8729 10.1486 10.6821 10.2893 10.5414C10.4299 10.4008 10.6207 10.3218 10.8196 10.3218H16.8196C17.0185 10.3218 17.2093 10.4008 17.3499 10.5414C17.4906 10.6821 17.5696 10.8729 17.5696 11.0718ZM16.8196 13.3218H10.8196C10.6207 13.3218 10.4299 13.4008 10.2893 13.5414C10.1486 13.6821 10.0696 13.8729 10.0696 14.0718C10.0696 14.2707 10.1486 14.4615 10.2893 14.6021C10.4299 14.7428 10.6207 14.8218 10.8196 14.8218H16.8196C17.0185 14.8218 17.2093 14.7428 17.3499 14.6021C17.4906 14.4615 17.5696 14.2707 17.5696 14.0718C17.5696 13.8729 17.4906 13.6821 17.3499 13.5414C17.2093 13.4008 17.0185 13.3218 16.8196 13.3218ZM21.3196 5.07178V20.0718C21.3196 20.4696 21.1615 20.8511 20.8802 21.1324C20.5989 21.4137 20.2174 21.5718 19.8196 21.5718H4.81958C4.42176 21.5718 4.04022 21.4137 3.75892 21.1324C3.47762 20.8511 3.31958 20.4696 3.31958 20.0718V5.07178C3.31958 4.67395 3.47762 4.29242 3.75892 4.01112C4.04022 3.72981 4.42176 3.57178 4.81958 3.57178H19.8196C20.2174 3.57178 20.5989 3.72981 20.8802 4.01112C21.1615 4.29242 21.3196 4.67395 21.3196 5.07178ZM4.81958 20.0718H7.06958V5.07178H4.81958V20.0718ZM19.8196 20.0718V5.07178H8.56958V20.0718H19.8196Z" fill="#4E6B53"/>
</svg>
